<mxfile host="app.diagrams.net" agent="Mozilla/5.0 (Windows NT 10.0; Win64; x64) AppleWebKit/537.36 (KHTML, like Gecko) Chrome/135.0.0.0 Safari/537.36" version="26.2.12">
  <diagram name="Halaman-1" id="LKj9e6zo94bGtGskfQpC">
    <mxGraphModel dx="1427" dy="451" grid="0" gridSize="10" guides="1" tooltips="1" connect="1" arrows="1" fold="1" page="0" pageScale="1" pageWidth="827" pageHeight="1169" math="0" shadow="0">
      <root>
        <mxCell id="0" />
        <mxCell id="1" parent="0" />
        <mxCell id="KcbQTB5hiwEDn01eyoOd-12" value="" style="edgeStyle=orthogonalEdgeStyle;rounded=0;orthogonalLoop=1;jettySize=auto;html=1;" edge="1" parent="1" source="7X-rrg_BP8-lbnwgWJdB-1" target="KcbQTB5hiwEDn01eyoOd-11">
          <mxGeometry relative="1" as="geometry" />
        </mxCell>
        <mxCell id="7X-rrg_BP8-lbnwgWJdB-1" value="memiliki" style="rhombus;whiteSpace=wrap;html=1;" parent="1" vertex="1">
          <mxGeometry x="350" y="160" width="80" height="80" as="geometry" />
        </mxCell>
        <mxCell id="7X-rrg_BP8-lbnwgWJdB-5" value="" style="edgeStyle=none;curved=1;rounded=0;orthogonalLoop=1;jettySize=auto;html=1;fontSize=12;startSize=8;endSize=8;" parent="1" source="7X-rrg_BP8-lbnwgWJdB-2" target="7X-rrg_BP8-lbnwgWJdB-4" edge="1">
          <mxGeometry relative="1" as="geometry" />
        </mxCell>
        <mxCell id="7X-rrg_BP8-lbnwgWJdB-6" value="" style="edgeStyle=none;curved=1;rounded=0;orthogonalLoop=1;jettySize=auto;html=1;fontSize=12;startSize=8;endSize=8;" parent="1" source="7X-rrg_BP8-lbnwgWJdB-2" target="7X-rrg_BP8-lbnwgWJdB-4" edge="1">
          <mxGeometry relative="1" as="geometry" />
        </mxCell>
        <mxCell id="7X-rrg_BP8-lbnwgWJdB-7" value="" style="edgeStyle=none;curved=1;rounded=0;orthogonalLoop=1;jettySize=auto;html=1;fontSize=12;startSize=8;endSize=8;" parent="1" source="7X-rrg_BP8-lbnwgWJdB-2" target="7X-rrg_BP8-lbnwgWJdB-4" edge="1">
          <mxGeometry relative="1" as="geometry" />
        </mxCell>
        <mxCell id="7X-rrg_BP8-lbnwgWJdB-8" value="" style="edgeStyle=none;curved=1;rounded=0;orthogonalLoop=1;jettySize=auto;html=1;fontSize=12;startSize=8;endSize=8;" parent="1" source="7X-rrg_BP8-lbnwgWJdB-2" target="7X-rrg_BP8-lbnwgWJdB-4" edge="1">
          <mxGeometry relative="1" as="geometry" />
        </mxCell>
        <mxCell id="7X-rrg_BP8-lbnwgWJdB-11" value="" style="edgeStyle=none;curved=1;rounded=0;orthogonalLoop=1;jettySize=auto;html=1;fontSize=12;startSize=8;endSize=8;" parent="1" source="7X-rrg_BP8-lbnwgWJdB-2" target="7X-rrg_BP8-lbnwgWJdB-4" edge="1">
          <mxGeometry relative="1" as="geometry">
            <Array as="points">
              <mxPoint x="156" y="199" />
            </Array>
          </mxGeometry>
        </mxCell>
        <mxCell id="7X-rrg_BP8-lbnwgWJdB-17" value="" style="edgeStyle=none;curved=1;rounded=0;orthogonalLoop=1;jettySize=auto;html=1;fontSize=12;startSize=8;endSize=8;" parent="1" source="7X-rrg_BP8-lbnwgWJdB-2" target="7X-rrg_BP8-lbnwgWJdB-16" edge="1">
          <mxGeometry relative="1" as="geometry" />
        </mxCell>
        <mxCell id="7X-rrg_BP8-lbnwgWJdB-21" style="edgeStyle=none;curved=1;rounded=0;orthogonalLoop=1;jettySize=auto;html=1;exitX=1;exitY=0.5;exitDx=0;exitDy=0;entryX=0;entryY=0.5;entryDx=0;entryDy=0;fontSize=12;startSize=8;endSize=8;" parent="1" source="7X-rrg_BP8-lbnwgWJdB-2" target="7X-rrg_BP8-lbnwgWJdB-1" edge="1">
          <mxGeometry relative="1" as="geometry" />
        </mxCell>
        <mxCell id="KcbQTB5hiwEDn01eyoOd-4" value="" style="edgeStyle=orthogonalEdgeStyle;rounded=0;orthogonalLoop=1;jettySize=auto;html=1;" edge="1" parent="1" source="7X-rrg_BP8-lbnwgWJdB-2" target="KcbQTB5hiwEDn01eyoOd-3">
          <mxGeometry relative="1" as="geometry" />
        </mxCell>
        <mxCell id="7X-rrg_BP8-lbnwgWJdB-2" value="Mahasiswa" style="whiteSpace=wrap;html=1;" parent="1" vertex="1">
          <mxGeometry x="170" y="185" width="81" height="28" as="geometry" />
        </mxCell>
        <mxCell id="7X-rrg_BP8-lbnwgWJdB-4" value="24241049" style="ellipse;whiteSpace=wrap;html=1;" parent="1" vertex="1">
          <mxGeometry x="41" y="181.5" width="90" height="35" as="geometry" />
        </mxCell>
        <mxCell id="7X-rrg_BP8-lbnwgWJdB-19" value="" style="edgeStyle=none;curved=1;rounded=0;orthogonalLoop=1;jettySize=auto;html=1;fontSize=12;startSize=8;endSize=8;" parent="1" source="7X-rrg_BP8-lbnwgWJdB-16" target="7X-rrg_BP8-lbnwgWJdB-18" edge="1">
          <mxGeometry relative="1" as="geometry" />
        </mxCell>
        <mxCell id="7X-rrg_BP8-lbnwgWJdB-16" value="Alief Hikham Pratama" style="ellipse;whiteSpace=wrap;html=1;" parent="1" vertex="1">
          <mxGeometry x="163.75" y="96" width="92.5" height="43" as="geometry" />
        </mxCell>
        <mxCell id="7X-rrg_BP8-lbnwgWJdB-18" value="Laki Laki" style="ellipse;whiteSpace=wrap;html=1;" parent="1" vertex="1">
          <mxGeometry x="39" y="97.63" width="89" height="39.75" as="geometry" />
        </mxCell>
        <mxCell id="KcbQTB5hiwEDn01eyoOd-6" value="" style="edgeStyle=orthogonalEdgeStyle;rounded=0;orthogonalLoop=1;jettySize=auto;html=1;" edge="1" parent="1" source="KcbQTB5hiwEDn01eyoOd-3" target="KcbQTB5hiwEDn01eyoOd-5">
          <mxGeometry relative="1" as="geometry" />
        </mxCell>
        <mxCell id="KcbQTB5hiwEDn01eyoOd-3" value="Lombok Barat" style="ellipse;whiteSpace=wrap;html=1;" vertex="1" parent="1">
          <mxGeometry x="167" y="254" width="86" height="37" as="geometry" />
        </mxCell>
        <mxCell id="KcbQTB5hiwEDn01eyoOd-8" value="" style="edgeStyle=orthogonalEdgeStyle;rounded=0;orthogonalLoop=1;jettySize=auto;html=1;" edge="1" parent="1" source="KcbQTB5hiwEDn01eyoOd-5" target="KcbQTB5hiwEDn01eyoOd-7">
          <mxGeometry relative="1" as="geometry" />
        </mxCell>
        <mxCell id="KcbQTB5hiwEDn01eyoOd-5" value="Gerung" style="ellipse;whiteSpace=wrap;html=1;" vertex="1" parent="1">
          <mxGeometry x="169.25" y="337" width="81.5" height="39.5" as="geometry" />
        </mxCell>
        <mxCell id="KcbQTB5hiwEDn01eyoOd-10" value="" style="edgeStyle=orthogonalEdgeStyle;rounded=0;orthogonalLoop=1;jettySize=auto;html=1;" edge="1" parent="1" source="KcbQTB5hiwEDn01eyoOd-7" target="KcbQTB5hiwEDn01eyoOd-9">
          <mxGeometry relative="1" as="geometry" />
        </mxCell>
        <mxCell id="KcbQTB5hiwEDn01eyoOd-7" value="Gerung Utara" style="ellipse;whiteSpace=wrap;html=1;" vertex="1" parent="1">
          <mxGeometry x="40.5" y="335.13" width="91" height="43.25" as="geometry" />
        </mxCell>
        <mxCell id="KcbQTB5hiwEDn01eyoOd-9" value="Asrama Polsek Gerung" style="ellipse;whiteSpace=wrap;html=1;" vertex="1" parent="1">
          <mxGeometry x="-105" y="334.13" width="108" height="44.25" as="geometry" />
        </mxCell>
        <mxCell id="KcbQTB5hiwEDn01eyoOd-16" value="" style="edgeStyle=orthogonalEdgeStyle;rounded=0;orthogonalLoop=1;jettySize=auto;html=1;" edge="1" parent="1" source="KcbQTB5hiwEDn01eyoOd-11" target="KcbQTB5hiwEDn01eyoOd-15">
          <mxGeometry relative="1" as="geometry" />
        </mxCell>
        <mxCell id="KcbQTB5hiwEDn01eyoOd-18" value="" style="edgeStyle=orthogonalEdgeStyle;rounded=0;orthogonalLoop=1;jettySize=auto;html=1;" edge="1" parent="1" source="KcbQTB5hiwEDn01eyoOd-11" target="KcbQTB5hiwEDn01eyoOd-17">
          <mxGeometry relative="1" as="geometry" />
        </mxCell>
        <mxCell id="KcbQTB5hiwEDn01eyoOd-11" value="Hobi&amp;nbsp;" style="whiteSpace=wrap;html=1;" vertex="1" parent="1">
          <mxGeometry x="342" y="101.81" width="96" height="31.38" as="geometry" />
        </mxCell>
        <mxCell id="KcbQTB5hiwEDn01eyoOd-15" value="Jogging" style="ellipse;whiteSpace=wrap;html=1;" vertex="1" parent="1">
          <mxGeometry x="486" y="95" width="77" height="45" as="geometry" />
        </mxCell>
        <mxCell id="KcbQTB5hiwEDn01eyoOd-17" value="Bulutangkis" style="ellipse;whiteSpace=wrap;html=1;" vertex="1" parent="1">
          <mxGeometry x="346.5" y="18" width="87" height="42" as="geometry" />
        </mxCell>
      </root>
    </mxGraphModel>
  </diagram>
</mxfile>
